<svg version="1.1" id="Layer_1" xmlns="http://www.w3.org/2000/svg" xmlns:xlink="http://www.w3.org/1999/xlink" x="0px" y="0px"
	 width="100%" viewBox="0 0 320 320" enable-background="new 0 0 320 320" xml:space="preserve">
<path fill="#002583" opacity="1.000000" stroke="none" 
	d="
M289.000000,321.000000 
	C192.666702,321.000000 96.833405,321.000000 1.000077,321.000000 
	C1.000051,214.333405 1.000051,107.666809 1.000026,1.000163 
	C107.666557,1.000109 214.333115,1.000109 320.999756,1.000054 
	C320.999817,107.666512 320.999817,214.333023 320.999908,320.999756 
	C310.500000,321.000000 300.000000,321.000000 289.000000,321.000000 
M178.530731,146.076416 
	C175.425537,144.313553 172.320358,142.550690 169.056091,140.697525 
	C167.411652,151.357620 167.419769,151.343796 175.671097,156.187241 
	C178.389084,157.782684 181.053207,159.469864 184.115829,161.343842 
	C180.520386,163.461090 177.663834,165.154984 174.796051,166.829651 
	C167.664032,170.994370 167.021088,172.647568 169.371048,181.599411 
	C180.915329,174.906891 192.356857,168.273941 204.429123,161.275314 
	C195.701706,156.159149 187.427719,151.308777 178.530731,146.076416 
M138.370209,152.976257 
	C134.146332,155.441422 129.922455,157.906570 125.024658,160.765045 
	C137.243408,167.888046 148.757462,174.600250 160.803986,181.622849 
	C160.896942,179.543198 160.810410,178.244766 161.035782,177.002960 
	C161.959122,171.915176 160.121567,168.640976 155.265259,166.559204 
	C151.900146,165.116669 148.899399,162.824142 145.341187,160.672775 
	C148.855103,158.601440 151.700119,156.900772 154.567551,155.238785 
	C161.777023,151.060120 162.490585,149.252884 160.113525,140.372986 
	C153.021454,144.492935 146.018600,148.561050 138.370209,152.976257 
z"/>
<path fill="#E0E4ED" opacity="1.000000" stroke="none" 
	d="
M178.842239,146.267426 
	C187.427719,151.308777 195.701706,156.159149 204.429123,161.275314 
	C192.356857,168.273941 180.915329,174.906891 169.371048,181.599411 
	C167.021088,172.647568 167.664032,170.994370 174.796051,166.829651 
	C177.663834,165.154984 180.520386,163.461090 184.115829,161.343842 
	C181.053207,159.469864 178.389084,157.782684 175.671097,156.187241 
	C167.419769,151.343796 167.411652,151.357620 169.056091,140.697525 
	C172.320358,142.550690 175.425537,144.313553 178.842239,146.267426 
z"/>
<path fill="#F9B403" opacity="1.000000" stroke="none" 
	d="
M138.692978,152.802704 
	C146.018600,148.561050 153.021454,144.492935 160.113525,140.372986 
	C162.490585,149.252884 161.777023,151.060120 154.567551,155.238785 
	C151.700119,156.900772 148.855103,158.601440 145.341187,160.672775 
	C148.899399,162.824142 151.900146,165.116669 155.265259,166.559204 
	C160.121567,168.640976 161.959122,171.915176 161.035782,177.002960 
	C160.810410,178.244766 160.896942,179.543198 160.803986,181.622849 
	C148.757462,174.600250 137.243408,167.888046 125.024658,160.765045 
	C129.922455,157.906570 134.146332,155.441422 138.692978,152.802704 
z"/>
</svg>